<mxfile host="app.diagrams.net" modified="2024-05-20T02:46:09.184Z" agent="Mozilla/5.0 (Macintosh; Intel Mac OS X 10_15_7) AppleWebKit/537.36 (KHTML, like Gecko) Chrome/124.0.0.0 Safari/537.36" etag="d4y-egvTfiY4gAhhgm_-" version="24.3.1" type="github">
  <diagram name="Page-1" id="7kYvlZhAPDPhE8g5D6We">
    <mxGraphModel dx="1583" dy="489" grid="1" gridSize="10" guides="1" tooltips="1" connect="1" arrows="1" fold="1" page="1" pageScale="1" pageWidth="850" pageHeight="1100" math="0" shadow="0">
      <root>
        <mxCell id="0" />
        <mxCell id="1" parent="0" />
        <mxCell id="n4XWzI5O3QYMhMNAvSrM-4" value="Distributed pooling of resources" style="swimlane;horizontal=0;whiteSpace=wrap;html=1;" vertex="1" parent="1">
          <mxGeometry x="-20" y="280" width="840" height="240" as="geometry" />
        </mxCell>
        <mxCell id="n4XWzI5O3QYMhMNAvSrM-173" value="GPU Pool&lt;div&gt;&lt;br&gt;&lt;/div&gt;&lt;div&gt;&lt;br&gt;&lt;/div&gt;&lt;div&gt;&lt;br&gt;&lt;/div&gt;&lt;div&gt;&lt;br&gt;&lt;/div&gt;" style="ellipse;shape=cloud;whiteSpace=wrap;html=1;dashed=1;" vertex="1" parent="n4XWzI5O3QYMhMNAvSrM-4">
          <mxGeometry x="318" y="31" width="292" height="191" as="geometry" />
        </mxCell>
        <mxCell id="n4XWzI5O3QYMhMNAvSrM-194" style="rounded=0;orthogonalLoop=1;jettySize=auto;html=1;startArrow=classic;startFill=1;strokeWidth=1;endSize=3;startSize=3;" edge="1" parent="n4XWzI5O3QYMhMNAvSrM-4" source="n4XWzI5O3QYMhMNAvSrM-181" target="n4XWzI5O3QYMhMNAvSrM-186">
          <mxGeometry relative="1" as="geometry" />
        </mxCell>
        <mxCell id="n4XWzI5O3QYMhMNAvSrM-196" style="rounded=0;orthogonalLoop=1;jettySize=auto;html=1;startArrow=classic;startFill=1;startSize=3;endSize=3;" edge="1" parent="n4XWzI5O3QYMhMNAvSrM-4" source="n4XWzI5O3QYMhMNAvSrM-181" target="n4XWzI5O3QYMhMNAvSrM-191">
          <mxGeometry relative="1" as="geometry" />
        </mxCell>
        <mxCell id="n4XWzI5O3QYMhMNAvSrM-202" style="rounded=0;orthogonalLoop=1;jettySize=auto;html=1;startArrow=classic;startFill=1;endSize=2;startSize=2;" edge="1" parent="n4XWzI5O3QYMhMNAvSrM-4" source="n4XWzI5O3QYMhMNAvSrM-181" target="n4XWzI5O3QYMhMNAvSrM-189">
          <mxGeometry relative="1" as="geometry" />
        </mxCell>
        <mxCell id="n4XWzI5O3QYMhMNAvSrM-181" value="" style="sketch=0;outlineConnect=0;fontColor=#232F3E;gradientColor=none;fillColor=#262626;strokeColor=none;dashed=0;verticalLabelPosition=bottom;verticalAlign=top;align=center;html=1;fontSize=12;fontStyle=0;aspect=fixed;pointerEvents=1;shape=mxgraph.aws4.ec2_aws_microservice_extractor_for_net;" vertex="1" parent="n4XWzI5O3QYMhMNAvSrM-4">
          <mxGeometry x="380" y="122.5" width="28" height="28" as="geometry" />
        </mxCell>
        <mxCell id="n4XWzI5O3QYMhMNAvSrM-195" style="rounded=0;orthogonalLoop=1;jettySize=auto;html=1;startArrow=classic;startFill=1;endSize=2;startSize=2;strokeWidth=0.5;" edge="1" parent="n4XWzI5O3QYMhMNAvSrM-4" source="n4XWzI5O3QYMhMNAvSrM-186" target="n4XWzI5O3QYMhMNAvSrM-189">
          <mxGeometry relative="1" as="geometry" />
        </mxCell>
        <mxCell id="n4XWzI5O3QYMhMNAvSrM-201" style="rounded=0;orthogonalLoop=1;jettySize=auto;html=1;startArrow=classic;startFill=1;endSize=2;startSize=2;" edge="1" parent="n4XWzI5O3QYMhMNAvSrM-4" source="n4XWzI5O3QYMhMNAvSrM-186" target="n4XWzI5O3QYMhMNAvSrM-190">
          <mxGeometry relative="1" as="geometry" />
        </mxCell>
        <mxCell id="n4XWzI5O3QYMhMNAvSrM-186" value="" style="sketch=0;outlineConnect=0;fontColor=#232F3E;gradientColor=none;fillColor=#262626;strokeColor=none;dashed=0;verticalLabelPosition=bottom;verticalAlign=top;align=center;html=1;fontSize=12;fontStyle=0;aspect=fixed;pointerEvents=1;shape=mxgraph.aws4.ec2_aws_microservice_extractor_for_net;" vertex="1" parent="n4XWzI5O3QYMhMNAvSrM-4">
          <mxGeometry x="431" y="112.5" width="28" height="28" as="geometry" />
        </mxCell>
        <mxCell id="n4XWzI5O3QYMhMNAvSrM-187" value="&lt;span style=&quot;color: rgb(35, 47, 62);&quot;&gt;&lt;font style=&quot;font-size: 7px;&quot;&gt;AI Microservice&lt;/font&gt;&lt;/span&gt;" style="text;html=1;align=center;verticalAlign=middle;resizable=0;points=[];autosize=1;strokeColor=none;fillColor=none;" vertex="1" parent="n4XWzI5O3QYMhMNAvSrM-4">
          <mxGeometry x="358" y="140.5" width="70" height="30" as="geometry" />
        </mxCell>
        <mxCell id="n4XWzI5O3QYMhMNAvSrM-200" style="rounded=0;orthogonalLoop=1;jettySize=auto;html=1;endSize=2;startSize=2;startArrow=classic;startFill=1;strokeWidth=0.6;" edge="1" parent="n4XWzI5O3QYMhMNAvSrM-4" source="n4XWzI5O3QYMhMNAvSrM-189" target="n4XWzI5O3QYMhMNAvSrM-191">
          <mxGeometry relative="1" as="geometry" />
        </mxCell>
        <mxCell id="n4XWzI5O3QYMhMNAvSrM-189" value="" style="sketch=0;outlineConnect=0;fontColor=#232F3E;gradientColor=none;fillColor=#262626;strokeColor=none;dashed=0;verticalLabelPosition=bottom;verticalAlign=top;align=center;html=1;fontSize=12;fontStyle=0;aspect=fixed;pointerEvents=1;shape=mxgraph.aws4.ec2_aws_microservice_extractor_for_net;" vertex="1" parent="n4XWzI5O3QYMhMNAvSrM-4">
          <mxGeometry x="470" y="133" width="28" height="28" as="geometry" />
        </mxCell>
        <mxCell id="n4XWzI5O3QYMhMNAvSrM-199" style="rounded=0;orthogonalLoop=1;jettySize=auto;html=1;endSize=2;startSize=2;startArrow=classic;startFill=1;strokeWidth=0.4;" edge="1" parent="n4XWzI5O3QYMhMNAvSrM-4" source="n4XWzI5O3QYMhMNAvSrM-190" target="n4XWzI5O3QYMhMNAvSrM-189">
          <mxGeometry relative="1" as="geometry" />
        </mxCell>
        <mxCell id="n4XWzI5O3QYMhMNAvSrM-190" value="" style="sketch=0;outlineConnect=0;fontColor=#232F3E;gradientColor=none;fillColor=#262626;strokeColor=none;dashed=0;verticalLabelPosition=bottom;verticalAlign=top;align=center;html=1;fontSize=12;fontStyle=0;aspect=fixed;pointerEvents=1;shape=mxgraph.aws4.ec2_aws_microservice_extractor_for_net;" vertex="1" parent="n4XWzI5O3QYMhMNAvSrM-4">
          <mxGeometry x="512" y="105" width="28" height="28" as="geometry" />
        </mxCell>
        <mxCell id="n4XWzI5O3QYMhMNAvSrM-197" style="rounded=0;orthogonalLoop=1;jettySize=auto;html=1;startArrow=classic;startFill=1;endSize=3;startSize=3;" edge="1" parent="n4XWzI5O3QYMhMNAvSrM-4" source="n4XWzI5O3QYMhMNAvSrM-191" target="n4XWzI5O3QYMhMNAvSrM-192">
          <mxGeometry relative="1" as="geometry" />
        </mxCell>
        <mxCell id="n4XWzI5O3QYMhMNAvSrM-191" value="" style="sketch=0;outlineConnect=0;fontColor=#232F3E;gradientColor=none;fillColor=#262626;strokeColor=none;dashed=0;verticalLabelPosition=bottom;verticalAlign=top;align=center;html=1;fontSize=12;fontStyle=0;aspect=fixed;pointerEvents=1;shape=mxgraph.aws4.ec2_aws_microservice_extractor_for_net;" vertex="1" parent="n4XWzI5O3QYMhMNAvSrM-4">
          <mxGeometry x="482" y="179" width="28" height="28" as="geometry" />
        </mxCell>
        <mxCell id="n4XWzI5O3QYMhMNAvSrM-198" style="rounded=0;orthogonalLoop=1;jettySize=auto;html=1;endSize=2;startSize=2;strokeWidth=0.4;startArrow=classic;startFill=1;" edge="1" parent="n4XWzI5O3QYMhMNAvSrM-4" source="n4XWzI5O3QYMhMNAvSrM-192" target="n4XWzI5O3QYMhMNAvSrM-190">
          <mxGeometry relative="1" as="geometry" />
        </mxCell>
        <mxCell id="n4XWzI5O3QYMhMNAvSrM-192" value="" style="sketch=0;outlineConnect=0;fontColor=#232F3E;gradientColor=none;fillColor=#262626;strokeColor=none;dashed=0;verticalLabelPosition=bottom;verticalAlign=top;align=center;html=1;fontSize=12;fontStyle=0;aspect=fixed;pointerEvents=1;shape=mxgraph.aws4.ec2_aws_microservice_extractor_for_net;" vertex="1" parent="n4XWzI5O3QYMhMNAvSrM-4">
          <mxGeometry x="540" y="142.5" width="28" height="28" as="geometry" />
        </mxCell>
        <mxCell id="n4XWzI5O3QYMhMNAvSrM-205" value="&lt;font style=&quot;font-size: 9px;&quot;&gt;RESTful API&lt;/font&gt;" style="text;html=1;align=center;verticalAlign=middle;resizable=0;points=[];autosize=1;strokeColor=none;fillColor=none;rotation=30;" vertex="1" parent="n4XWzI5O3QYMhMNAvSrM-4">
          <mxGeometry x="428" y="149" width="70" height="30" as="geometry" />
        </mxCell>
        <mxCell id="n4XWzI5O3QYMhMNAvSrM-174" value="&lt;font style=&quot;font-size: 12px;&quot;&gt;VxLAN&lt;/font&gt;" style="edgeStyle=orthogonalEdgeStyle;rounded=0;orthogonalLoop=1;jettySize=auto;html=1;startArrow=classic;startFill=1;endArrow=none;endFill=0;" edge="1" parent="n4XWzI5O3QYMhMNAvSrM-4">
          <mxGeometry relative="1" as="geometry">
            <mxPoint x="324.00000131560887" y="126.72717948717946" as="sourcePoint" />
            <mxPoint x="236" y="126.24000000000001" as="targetPoint" />
            <Array as="points">
              <mxPoint x="283" y="126.24000000000001" />
              <mxPoint x="241" y="126.24000000000001" />
            </Array>
          </mxGeometry>
        </mxCell>
        <mxCell id="n4XWzI5O3QYMhMNAvSrM-6" value="Janction Layer2" style="swimlane;horizontal=0;whiteSpace=wrap;html=1;" vertex="1" parent="1">
          <mxGeometry x="-20" y="520" width="840" height="240" as="geometry" />
        </mxCell>
        <mxCell id="n4XWzI5O3QYMhMNAvSrM-8" value="&lt;font style=&quot;font-size: 15px;&quot;&gt;DA&lt;/font&gt;" style="rounded=1;whiteSpace=wrap;html=1;" vertex="1" parent="n4XWzI5O3QYMhMNAvSrM-6">
          <mxGeometry x="690" y="140" width="120" height="60" as="geometry" />
        </mxCell>
        <mxCell id="n4XWzI5O3QYMhMNAvSrM-9" value="&lt;font style=&quot;font-size: 15px;&quot;&gt;Proof Of Contribution&lt;/font&gt;" style="rounded=1;whiteSpace=wrap;html=1;" vertex="1" parent="n4XWzI5O3QYMhMNAvSrM-6">
          <mxGeometry x="540" y="140" width="120" height="60" as="geometry" />
        </mxCell>
        <mxCell id="n4XWzI5O3QYMhMNAvSrM-31" value="Data Capture" style="whiteSpace=wrap;html=1;" vertex="1" parent="n4XWzI5O3QYMhMNAvSrM-6">
          <mxGeometry x="250" y="110" width="100" height="40" as="geometry" />
        </mxCell>
        <mxCell id="n4XWzI5O3QYMhMNAvSrM-32" value="Extension" style="whiteSpace=wrap;html=1;" vertex="1" parent="n4XWzI5O3QYMhMNAvSrM-6">
          <mxGeometry x="400" y="70" width="100" height="40" as="geometry" />
        </mxCell>
        <mxCell id="n4XWzI5O3QYMhMNAvSrM-33" value="" style="edgeStyle=elbowEdgeStyle;elbow=horizontal;html=1;rounded=1;curved=0;sourcePerimeterSpacing=0;targetPerimeterSpacing=0;startSize=6;endSize=6;" edge="1" parent="n4XWzI5O3QYMhMNAvSrM-6" source="n4XWzI5O3QYMhMNAvSrM-31" target="n4XWzI5O3QYMhMNAvSrM-32">
          <mxGeometry relative="1" as="geometry" />
        </mxCell>
        <mxCell id="n4XWzI5O3QYMhMNAvSrM-34" value="On-chain data ingestion" style="whiteSpace=wrap;html=1;" vertex="1" parent="n4XWzI5O3QYMhMNAvSrM-6">
          <mxGeometry x="400" y="150" width="100" height="40" as="geometry" />
        </mxCell>
        <mxCell id="n4XWzI5O3QYMhMNAvSrM-35" value="" style="edgeStyle=elbowEdgeStyle;elbow=horizontal;html=1;rounded=1;curved=0;sourcePerimeterSpacing=0;targetPerimeterSpacing=0;startSize=6;endSize=6;" edge="1" parent="n4XWzI5O3QYMhMNAvSrM-6" source="n4XWzI5O3QYMhMNAvSrM-31" target="n4XWzI5O3QYMhMNAvSrM-34">
          <mxGeometry relative="1" as="geometry" />
        </mxCell>
        <mxCell id="n4XWzI5O3QYMhMNAvSrM-7" value="GPU Marketplace" style="swimlane;horizontal=0;whiteSpace=wrap;html=1;" vertex="1" parent="1">
          <mxGeometry x="-20" y="40" width="840" height="260" as="geometry" />
        </mxCell>
        <mxCell id="n4XWzI5O3QYMhMNAvSrM-43" value="GPU Pool" style="swimlane;dashed=1;" vertex="1" parent="n4XWzI5O3QYMhMNAvSrM-7">
          <mxGeometry x="45" y="10" width="190" height="440" as="geometry" />
        </mxCell>
        <mxCell id="n4XWzI5O3QYMhMNAvSrM-167" value="GPU" style="ellipse;whiteSpace=wrap;html=1;" vertex="1" parent="n4XWzI5O3QYMhMNAvSrM-43">
          <mxGeometry x="35" y="90" width="40" height="30" as="geometry" />
        </mxCell>
        <mxCell id="n4XWzI5O3QYMhMNAvSrM-168" value="GPU" style="ellipse;whiteSpace=wrap;html=1;" vertex="1" parent="n4XWzI5O3QYMhMNAvSrM-43">
          <mxGeometry x="15" y="135" width="80" height="40" as="geometry" />
        </mxCell>
        <mxCell id="n4XWzI5O3QYMhMNAvSrM-169" value="GPU" style="ellipse;whiteSpace=wrap;html=1;" vertex="1" parent="n4XWzI5O3QYMhMNAvSrM-43">
          <mxGeometry x="95" y="85" width="70" height="40" as="geometry" />
        </mxCell>
        <mxCell id="n4XWzI5O3QYMhMNAvSrM-170" value="GPU" style="ellipse;whiteSpace=wrap;html=1;" vertex="1" parent="n4XWzI5O3QYMhMNAvSrM-43">
          <mxGeometry x="55" y="35" width="70" height="40" as="geometry" />
        </mxCell>
        <mxCell id="n4XWzI5O3QYMhMNAvSrM-171" value="GPU" style="ellipse;whiteSpace=wrap;html=1;" vertex="1" parent="n4XWzI5O3QYMhMNAvSrM-43">
          <mxGeometry x="105" y="155" width="50" height="30" as="geometry" />
        </mxCell>
        <mxCell id="n4XWzI5O3QYMhMNAvSrM-172" value="" style="shape=flexArrow;endArrow=classic;html=1;rounded=0;endWidth=69.6;endSize=7.464;width=47.2;dashed=1;dashPattern=1 1;" edge="1" parent="n4XWzI5O3QYMhMNAvSrM-43">
          <mxGeometry width="50" height="50" relative="1" as="geometry">
            <mxPoint x="90" y="210" as="sourcePoint" />
            <mxPoint x="89.6" y="270" as="targetPoint" />
          </mxGeometry>
        </mxCell>
        <mxCell id="n4XWzI5O3QYMhMNAvSrM-177" value="&lt;span style=&quot;font-size: 14px;&quot;&gt;Account&lt;/span&gt;" style="rounded=1;whiteSpace=wrap;html=1;" vertex="1" parent="n4XWzI5O3QYMhMNAvSrM-7">
          <mxGeometry x="260" y="10" width="120" height="60" as="geometry" />
        </mxCell>
        <mxCell id="n4XWzI5O3QYMhMNAvSrM-210" style="edgeStyle=orthogonalEdgeStyle;rounded=0;orthogonalLoop=1;jettySize=auto;html=1;entryX=1;entryY=0.25;entryDx=0;entryDy=0;" edge="1" parent="n4XWzI5O3QYMhMNAvSrM-7" source="n4XWzI5O3QYMhMNAvSrM-209" target="n4XWzI5O3QYMhMNAvSrM-43">
          <mxGeometry relative="1" as="geometry" />
        </mxCell>
        <mxCell id="n4XWzI5O3QYMhMNAvSrM-212" value="&lt;font style=&quot;font-size: 12px;&quot;&gt;Joining&lt;/font&gt;" style="edgeLabel;html=1;align=center;verticalAlign=middle;resizable=0;points=[];" vertex="1" connectable="0" parent="n4XWzI5O3QYMhMNAvSrM-210">
          <mxGeometry x="0.0022" y="-3" relative="1" as="geometry">
            <mxPoint as="offset" />
          </mxGeometry>
        </mxCell>
        <mxCell id="n4XWzI5O3QYMhMNAvSrM-209" value="" style="sketch=0;outlineConnect=0;fontColor=#232F3E;gradientColor=none;fillColor=#232F3D;strokeColor=none;dashed=0;verticalLabelPosition=bottom;verticalAlign=top;align=center;html=1;fontSize=12;fontStyle=0;aspect=fixed;pointerEvents=1;shape=mxgraph.aws4.user;" vertex="1" parent="n4XWzI5O3QYMhMNAvSrM-7">
          <mxGeometry x="380" y="101" width="38" height="38" as="geometry" />
        </mxCell>
        <mxCell id="n4XWzI5O3QYMhMNAvSrM-211" value="" style="sketch=0;outlineConnect=0;fontColor=#232F3E;gradientColor=none;fillColor=#999999;strokeColor=none;dashed=0;verticalLabelPosition=bottom;verticalAlign=top;align=center;html=1;fontSize=12;fontStyle=0;aspect=fixed;pointerEvents=1;shape=mxgraph.aws4.user;" vertex="1" parent="n4XWzI5O3QYMhMNAvSrM-7">
          <mxGeometry x="380" y="150" width="38" height="38" as="geometry" />
        </mxCell>
        <mxCell id="n4XWzI5O3QYMhMNAvSrM-217" value="Front-End&lt;div&gt;&lt;br&gt;&lt;/div&gt;&lt;div&gt;&lt;br&gt;&lt;/div&gt;&lt;div&gt;&lt;br&gt;&lt;/div&gt;&lt;div&gt;&lt;br&gt;&lt;/div&gt;" style="shape=process;whiteSpace=wrap;html=1;backgroundOutline=1;" vertex="1" parent="n4XWzI5O3QYMhMNAvSrM-7">
          <mxGeometry x="360" y="200" width="260" height="80" as="geometry" />
        </mxCell>
        <mxCell id="n4XWzI5O3QYMhMNAvSrM-222" style="edgeStyle=orthogonalEdgeStyle;rounded=0;orthogonalLoop=1;jettySize=auto;html=1;curved=1;" edge="1" parent="n4XWzI5O3QYMhMNAvSrM-7" source="n4XWzI5O3QYMhMNAvSrM-220" target="n4XWzI5O3QYMhMNAvSrM-211">
          <mxGeometry relative="1" as="geometry" />
        </mxCell>
        <mxCell id="n4XWzI5O3QYMhMNAvSrM-220" value="" style="sketch=0;outlineConnect=0;fontColor=#232F3E;gradientColor=none;fillColor=#666666;strokeColor=none;dashed=0;verticalLabelPosition=bottom;verticalAlign=top;align=center;html=1;fontSize=12;fontStyle=0;aspect=fixed;pointerEvents=1;shape=mxgraph.aws4.internet_alt22;" vertex="1" parent="n4XWzI5O3QYMhMNAvSrM-7">
          <mxGeometry x="401" y="221" width="38" height="38" as="geometry" />
        </mxCell>
        <mxCell id="n4XWzI5O3QYMhMNAvSrM-122" value="vGPU" style="ellipse;whiteSpace=wrap;html=1;dashed=1;dashPattern=1 1;" vertex="1" parent="1">
          <mxGeometry x="40" y="400" width="40" height="30" as="geometry" />
        </mxCell>
        <mxCell id="n4XWzI5O3QYMhMNAvSrM-123" value="vGPU" style="ellipse;whiteSpace=wrap;html=1;dashed=1;dashPattern=1 1;" vertex="1" parent="1">
          <mxGeometry x="50" y="410" width="40" height="30" as="geometry" />
        </mxCell>
        <mxCell id="n4XWzI5O3QYMhMNAvSrM-124" value="vGPU" style="ellipse;whiteSpace=wrap;html=1;dashed=1;dashPattern=1 1;" vertex="1" parent="1">
          <mxGeometry x="60" y="420" width="40" height="30" as="geometry" />
        </mxCell>
        <mxCell id="n4XWzI5O3QYMhMNAvSrM-126" value="vGPU" style="ellipse;whiteSpace=wrap;html=1;dashed=1;dashPattern=1 1;" vertex="1" parent="1">
          <mxGeometry x="40" y="380" width="40" height="30" as="geometry" />
        </mxCell>
        <mxCell id="n4XWzI5O3QYMhMNAvSrM-127" value="vGPU" style="ellipse;whiteSpace=wrap;html=1;dashed=1;dashPattern=1 1;" vertex="1" parent="1">
          <mxGeometry x="50" y="390" width="40" height="30" as="geometry" />
        </mxCell>
        <mxCell id="n4XWzI5O3QYMhMNAvSrM-128" value="vGPU" style="ellipse;whiteSpace=wrap;html=1;dashed=1;dashPattern=1 1;" vertex="1" parent="1">
          <mxGeometry x="60" y="400" width="40" height="30" as="geometry" />
        </mxCell>
        <mxCell id="n4XWzI5O3QYMhMNAvSrM-129" value="vGPU" style="ellipse;whiteSpace=wrap;html=1;dashed=1;dashPattern=1 1;" vertex="1" parent="1">
          <mxGeometry x="70" y="410" width="40" height="30" as="geometry" />
        </mxCell>
        <mxCell id="n4XWzI5O3QYMhMNAvSrM-130" value="vGPU" style="ellipse;whiteSpace=wrap;html=1;dashed=1;dashPattern=1 1;" vertex="1" parent="1">
          <mxGeometry x="80" y="420" width="40" height="30" as="geometry" />
        </mxCell>
        <mxCell id="n4XWzI5O3QYMhMNAvSrM-132" value="vGPU" style="ellipse;whiteSpace=wrap;html=1;dashed=1;dashPattern=1 1;" vertex="1" parent="1">
          <mxGeometry x="40" y="360" width="40" height="30" as="geometry" />
        </mxCell>
        <mxCell id="n4XWzI5O3QYMhMNAvSrM-133" value="vGPU" style="ellipse;whiteSpace=wrap;html=1;dashed=1;dashPattern=1 1;" vertex="1" parent="1">
          <mxGeometry x="50" y="370" width="40" height="30" as="geometry" />
        </mxCell>
        <mxCell id="n4XWzI5O3QYMhMNAvSrM-134" value="vGPU" style="ellipse;whiteSpace=wrap;html=1;dashed=1;dashPattern=1 1;" vertex="1" parent="1">
          <mxGeometry x="60" y="380" width="40" height="30" as="geometry" />
        </mxCell>
        <mxCell id="n4XWzI5O3QYMhMNAvSrM-135" value="vGPU" style="ellipse;whiteSpace=wrap;html=1;dashed=1;dashPattern=1 1;" vertex="1" parent="1">
          <mxGeometry x="70" y="390" width="40" height="30" as="geometry" />
        </mxCell>
        <mxCell id="n4XWzI5O3QYMhMNAvSrM-136" value="vGPU" style="ellipse;whiteSpace=wrap;html=1;dashed=1;dashPattern=1 1;" vertex="1" parent="1">
          <mxGeometry x="80" y="400" width="40" height="30" as="geometry" />
        </mxCell>
        <mxCell id="n4XWzI5O3QYMhMNAvSrM-137" value="vGPU" style="ellipse;whiteSpace=wrap;html=1;dashed=1;dashPattern=1 1;" vertex="1" parent="1">
          <mxGeometry x="90" y="410" width="40" height="30" as="geometry" />
        </mxCell>
        <mxCell id="n4XWzI5O3QYMhMNAvSrM-138" value="vGPU" style="ellipse;whiteSpace=wrap;html=1;dashed=1;dashPattern=1 1;" vertex="1" parent="1">
          <mxGeometry x="100" y="420" width="40" height="30" as="geometry" />
        </mxCell>
        <mxCell id="n4XWzI5O3QYMhMNAvSrM-140" value="vGPU" style="ellipse;whiteSpace=wrap;html=1;dashed=1;dashPattern=1 1;" vertex="1" parent="1">
          <mxGeometry x="40" y="340" width="40" height="30" as="geometry" />
        </mxCell>
        <mxCell id="n4XWzI5O3QYMhMNAvSrM-141" value="vGPU" style="ellipse;whiteSpace=wrap;html=1;dashed=1;dashPattern=1 1;" vertex="1" parent="1">
          <mxGeometry x="50" y="350" width="40" height="30" as="geometry" />
        </mxCell>
        <mxCell id="n4XWzI5O3QYMhMNAvSrM-142" value="vGPU" style="ellipse;whiteSpace=wrap;html=1;dashed=1;dashPattern=1 1;" vertex="1" parent="1">
          <mxGeometry x="60" y="360" width="40" height="30" as="geometry" />
        </mxCell>
        <mxCell id="n4XWzI5O3QYMhMNAvSrM-143" value="vGPU" style="ellipse;whiteSpace=wrap;html=1;dashed=1;dashPattern=1 1;" vertex="1" parent="1">
          <mxGeometry x="70" y="370" width="40" height="30" as="geometry" />
        </mxCell>
        <mxCell id="n4XWzI5O3QYMhMNAvSrM-144" value="vGPU" style="ellipse;whiteSpace=wrap;html=1;dashed=1;dashPattern=1 1;" vertex="1" parent="1">
          <mxGeometry x="80" y="380" width="40" height="30" as="geometry" />
        </mxCell>
        <mxCell id="n4XWzI5O3QYMhMNAvSrM-145" value="vGPU" style="ellipse;whiteSpace=wrap;html=1;dashed=1;dashPattern=1 1;" vertex="1" parent="1">
          <mxGeometry x="90" y="390" width="40" height="30" as="geometry" />
        </mxCell>
        <mxCell id="n4XWzI5O3QYMhMNAvSrM-146" value="vGPU" style="ellipse;whiteSpace=wrap;html=1;dashed=1;dashPattern=1 1;" vertex="1" parent="1">
          <mxGeometry x="100" y="400" width="40" height="30" as="geometry" />
        </mxCell>
        <mxCell id="n4XWzI5O3QYMhMNAvSrM-147" value="vGPU" style="ellipse;whiteSpace=wrap;html=1;dashed=1;dashPattern=1 1;" vertex="1" parent="1">
          <mxGeometry x="110" y="410" width="40" height="30" as="geometry" />
        </mxCell>
        <mxCell id="n4XWzI5O3QYMhMNAvSrM-148" value="vGPU" style="ellipse;whiteSpace=wrap;html=1;dashed=1;dashPattern=1 1;" vertex="1" parent="1">
          <mxGeometry x="120" y="420" width="40" height="30" as="geometry" />
        </mxCell>
        <mxCell id="n4XWzI5O3QYMhMNAvSrM-150" value="vGPU" style="ellipse;whiteSpace=wrap;html=1;dashed=1;dashPattern=1 1;" vertex="1" parent="1">
          <mxGeometry x="80" y="340" width="40" height="30" as="geometry" />
        </mxCell>
        <mxCell id="n4XWzI5O3QYMhMNAvSrM-151" value="vGPU" style="ellipse;whiteSpace=wrap;html=1;dashed=1;dashPattern=1 1;" vertex="1" parent="1">
          <mxGeometry x="90" y="350" width="40" height="30" as="geometry" />
        </mxCell>
        <mxCell id="n4XWzI5O3QYMhMNAvSrM-152" value="vGPU" style="ellipse;whiteSpace=wrap;html=1;dashed=1;dashPattern=1 1;" vertex="1" parent="1">
          <mxGeometry x="100" y="360" width="40" height="30" as="geometry" />
        </mxCell>
        <mxCell id="n4XWzI5O3QYMhMNAvSrM-153" value="vGPU" style="ellipse;whiteSpace=wrap;html=1;dashed=1;dashPattern=1 1;" vertex="1" parent="1">
          <mxGeometry x="110" y="370" width="40" height="30" as="geometry" />
        </mxCell>
        <mxCell id="n4XWzI5O3QYMhMNAvSrM-154" value="vGPU" style="ellipse;whiteSpace=wrap;html=1;dashed=1;dashPattern=1 1;" vertex="1" parent="1">
          <mxGeometry x="120" y="380" width="40" height="30" as="geometry" />
        </mxCell>
        <mxCell id="n4XWzI5O3QYMhMNAvSrM-155" value="vGPU" style="ellipse;whiteSpace=wrap;html=1;dashed=1;dashPattern=1 1;" vertex="1" parent="1">
          <mxGeometry x="130" y="390" width="40" height="30" as="geometry" />
        </mxCell>
        <mxCell id="n4XWzI5O3QYMhMNAvSrM-156" value="vGPU" style="ellipse;whiteSpace=wrap;html=1;dashed=1;dashPattern=1 1;" vertex="1" parent="1">
          <mxGeometry x="140" y="400" width="40" height="30" as="geometry" />
        </mxCell>
        <mxCell id="n4XWzI5O3QYMhMNAvSrM-157" value="vGPU" style="ellipse;whiteSpace=wrap;html=1;dashed=1;dashPattern=1 1;" vertex="1" parent="1">
          <mxGeometry x="150" y="410" width="40" height="30" as="geometry" />
        </mxCell>
        <mxCell id="n4XWzI5O3QYMhMNAvSrM-158" value="vGPU" style="ellipse;whiteSpace=wrap;html=1;dashed=1;dashPattern=1 1;" vertex="1" parent="1">
          <mxGeometry x="160" y="420" width="40" height="30" as="geometry" />
        </mxCell>
        <mxCell id="n4XWzI5O3QYMhMNAvSrM-160" value="vGPU" style="ellipse;whiteSpace=wrap;html=1;dashed=1;dashPattern=1 1;" vertex="1" parent="1">
          <mxGeometry x="105" y="340" width="40" height="30" as="geometry" />
        </mxCell>
        <mxCell id="n4XWzI5O3QYMhMNAvSrM-161" value="vGPU" style="ellipse;whiteSpace=wrap;html=1;dashed=1;dashPattern=1 1;" vertex="1" parent="1">
          <mxGeometry x="115" y="350" width="40" height="30" as="geometry" />
        </mxCell>
        <mxCell id="n4XWzI5O3QYMhMNAvSrM-162" value="vGPU" style="ellipse;whiteSpace=wrap;html=1;dashed=1;dashPattern=1 1;" vertex="1" parent="1">
          <mxGeometry x="125" y="360" width="40" height="30" as="geometry" />
        </mxCell>
        <mxCell id="n4XWzI5O3QYMhMNAvSrM-163" value="vGPU" style="ellipse;whiteSpace=wrap;html=1;dashed=1;dashPattern=1 1;" vertex="1" parent="1">
          <mxGeometry x="135" y="370" width="40" height="30" as="geometry" />
        </mxCell>
        <mxCell id="n4XWzI5O3QYMhMNAvSrM-164" value="vGPU" style="ellipse;whiteSpace=wrap;html=1;dashed=1;dashPattern=1 1;" vertex="1" parent="1">
          <mxGeometry x="145" y="380" width="40" height="30" as="geometry" />
        </mxCell>
        <mxCell id="n4XWzI5O3QYMhMNAvSrM-165" value="vGPU" style="ellipse;whiteSpace=wrap;html=1;dashed=1;dashPattern=1 1;" vertex="1" parent="1">
          <mxGeometry x="155" y="390" width="40" height="30" as="geometry" />
        </mxCell>
        <mxCell id="n4XWzI5O3QYMhMNAvSrM-166" value="vGPU" style="ellipse;whiteSpace=wrap;html=1;dashed=1;dashPattern=1 1;" vertex="1" parent="1">
          <mxGeometry x="165" y="400" width="40" height="30" as="geometry" />
        </mxCell>
        <mxCell id="n4XWzI5O3QYMhMNAvSrM-221" value="" style="edgeStyle=none;orthogonalLoop=1;jettySize=auto;html=1;rounded=0;exitX=0.352;exitY=0.099;exitDx=0;exitDy=0;exitPerimeter=0;" edge="1" parent="1" source="n4XWzI5O3QYMhMNAvSrM-173" target="n4XWzI5O3QYMhMNAvSrM-220">
          <mxGeometry width="80" relative="1" as="geometry">
            <mxPoint x="440" y="250" as="sourcePoint" />
            <mxPoint x="390" y="300" as="targetPoint" />
            <Array as="points" />
          </mxGeometry>
        </mxCell>
        <mxCell id="n4XWzI5O3QYMhMNAvSrM-223" value="Service API Gatewa" style="text;html=1;align=center;verticalAlign=middle;resizable=0;points=[];autosize=1;strokeColor=none;fillColor=none;" vertex="1" parent="1">
          <mxGeometry x="475" y="138" width="130" height="30" as="geometry" />
        </mxCell>
      </root>
    </mxGraphModel>
  </diagram>
</mxfile>
